<?xml version="1.0" encoding="UTF-8"?>
<svg xmlns="http://www.w3.org/2000/svg" xmlns:xlink="http://www.w3.org/1999/xlink" width="212.598pt" height="212.598pt" viewBox="0 0 212.598 212.598">
<defs>
<clipPath id="clip-0">
<path clip-rule="nonzero" d="M 0 0 L 212.597656 0 L 212.597656 212.597656 L 0 212.597656 Z M 0 0 "/>
</clipPath>
</defs>
<g clip-path="url(#clip-0)">
<path fill-rule="nonzero" fill="rgb(13.729858%, 12.159729%, 12.548828%)" fill-opacity="1" d="M 0 212.597656 L 212.597656 212.597656 L 212.597656 0 L 0 0 Z M 0 212.597656 "/>
</g>
<path fill-rule="nonzero" fill="rgb(100%, 100%, 100%)" fill-opacity="1" d="M 63.796875 155.960938 L 61.703125 161.878906 L 65.910156 161.878906 Z M 67.195312 165.996094 L 60.425781 165.996094 L 59.367188 169.101562 L 53.726562 169.101562 L 61.230469 150 L 66.375 150 L 74.042969 169.101562 L 68.246094 169.101562 Z M 67.195312 165.996094 "/>
<path fill-rule="nonzero" fill="rgb(100%, 100%, 100%)" fill-opacity="1" d="M 74.152344 162.933594 L 79.582031 162.933594 C 79.582031 164.296875 80.636719 164.960938 81.835938 164.960938 C 82.9375 164.960938 83.988281 164.375 83.988281 163.332031 C 83.988281 162.132812 82.503906 161.785156 80.683594 161.347656 C 77.925781 160.660156 74.398438 159.8125 74.398438 155.464844 C 74.398438 151.703125 77.164062 149.546875 81.667969 149.546875 C 86.246094 149.546875 88.871094 151.898438 88.871094 155.785156 L 83.597656 155.785156 C 83.597656 154.578125 82.695312 154.011719 81.605469 154.011719 C 80.667969 154.011719 79.765625 154.417969 79.765625 155.308594 C 79.765625 156.394531 81.203125 156.75 83.003906 157.203125 C 85.816406 157.929688 89.492188 158.867188 89.492188 163.230469 C 89.492188 167.402344 86.285156 169.566406 81.851562 169.566406 C 77.175781 169.566406 74.152344 167.097656 74.152344 162.933594 "/>
<path fill-rule="nonzero" fill="rgb(100%, 100%, 100%)" fill-opacity="1" d="M 108.589844 149.996094 L 108.589844 169.101562 L 103.28125 169.101562 L 103.28125 161.769531 L 97.546875 161.769531 L 97.546875 169.101562 L 92.238281 169.101562 L 92.238281 149.996094 L 97.546875 149.996094 L 97.546875 156.890625 L 103.28125 156.890625 L 103.28125 149.996094 Z M 108.589844 149.996094 "/>
<path fill-rule="nonzero" fill="rgb(100%, 100%, 100%)" fill-opacity="1" d="M 131.148438 169.101562 L 129.660156 158.097656 L 124.59375 169.132812 L 123.039062 169.132812 L 117.976562 158.105469 L 116.503906 169.101562 L 111.171875 169.101562 L 114.0625 149.996094 L 119.316406 149.996094 L 123.816406 160.394531 L 128.34375 149.996094 L 133.597656 149.996094 L 136.460938 169.101562 Z M 131.148438 169.101562 "/>
<path fill-rule="nonzero" fill="rgb(100%, 100%, 100%)" fill-opacity="1" d="M 153.390625 159.550781 C 153.390625 156.558594 151.289062 154.414062 148.378906 154.414062 C 145.472656 154.414062 143.335938 156.574219 143.335938 159.550781 C 143.335938 162.523438 145.472656 164.6875 148.378906 164.6875 C 151.289062 164.6875 153.390625 162.539062 153.390625 159.550781 M 137.855469 159.550781 C 137.855469 153.710938 142.238281 149.515625 148.378906 149.515625 C 154.503906 149.515625 158.871094 153.695312 158.871094 159.550781 C 158.871094 165.402344 154.503906 169.582031 148.378906 169.582031 C 142.238281 169.582031 137.855469 165.390625 137.855469 159.550781 "/>
<path fill-rule="nonzero" fill="rgb(100%, 100%, 100%)" fill-opacity="1" d="M 126.175781 93.957031 L 122.941406 85.605469 L 110.609375 53.78125 L 106.554688 43.015625 L 102.519531 53.78125 L 90.160156 85.679688 L 86.933594 94.003906 C 87 94.046875 87.070312 94.082031 87.140625 94.125 C 90.71875 95.253906 94.433594 96.085938 98.253906 96.574219 L 101.398438 88.390625 L 106.566406 75.753906 L 111.726562 88.371094 L 114.875 96.574219 C 118.417969 96.117188 121.871094 95.371094 125.207031 94.363281 C 125.515625 94.238281 125.824219 94.113281 126.132812 93.984375 C 126.144531 93.972656 126.164062 93.964844 126.175781 93.957031 "/>
<path fill-rule="nonzero" fill="rgb(100%, 100%, 100%)" fill-opacity="1" d="M 78.105469 115.371094 L 81.722656 106.035156 C 81.929688 106.109375 82.136719 106.183594 82.34375 106.257812 C 89.910156 108.933594 98.0625 110.398438 106.558594 110.398438 C 114.980469 110.398438 123.0625 108.960938 130.566406 106.328125 C 130.851562 106.226562 131.136719 106.128906 131.417969 106.023438 L 135.023438 115.332031 L 135.917969 117.546875 L 144.328125 138.40625 L 128.652344 138.40625 L 121.769531 121.386719 L 121.585938 120.929688 C 118.90625 121.628906 116.023438 122.121094 113.0625 122.414062 L 112.394531 124.152344 L 106.566406 138.40625 L 100.746094 124.175781 L 100.074219 122.421875 C 97.113281 122.132812 94.234375 121.644531 91.550781 120.949219 L 84.492188 138.40625 L 68.816406 138.40625 Z M 87.894531 143.351562 L 95.496094 124.558594 L 103.179688 143.351562 L 109.953125 143.351562 L 117.644531 124.546875 L 125.25 143.351562 L 151.726562 143.351562 L 139.695312 113.519531 L 134.332031 99.683594 L 129.675781 101.382812 C 129.457031 101.460938 128.886719 101.660156 128.886719 101.660156 C 121.726562 104.171875 114.214844 105.445312 106.558594 105.445312 C 98.832031 105.445312 91.253906 104.148438 84.03125 101.59375 L 83.460938 101.390625 L 78.808594 99.695312 L 73.425781 113.585938 L 61.417969 143.351562 Z M 87.894531 143.351562 "/>
</svg>
