<?xml version="1.0" encoding="UTF-8"?>
<svg xmlns="http://www.w3.org/2000/svg" xmlns:xlink="http://www.w3.org/1999/xlink" width="212.598pt" height="212.598pt" viewBox="0 0 212.598 212.598">
<path fill-rule="nonzero" fill="rgb(13.729858%, 12.159729%, 12.548828%)" fill-opacity="1" d="M 133.992188 107.390625 L 129.421875 95.59375 L 112 50.644531 L 106.273438 35.433594 L 100.574219 50.644531 L 83.113281 95.699219 L 78.558594 107.457031 C 78.65625 107.515625 78.753906 107.570312 78.851562 107.625 C 83.90625 109.226562 89.152344 110.394531 94.550781 111.089844 L 98.988281 99.53125 L 106.289062 81.679688 L 113.578125 99.5 L 118.023438 111.085938 C 123.03125 110.441406 127.90625 109.386719 132.617188 107.964844 C 133.054688 107.789062 133.492188 107.609375 133.925781 107.425781 C 133.949219 107.414062 133.972656 107.402344 133.992188 107.390625 "/>
<path fill-rule="nonzero" fill="rgb(13.729858%, 12.159729%, 12.548828%)" fill-opacity="1" d="M 66.085938 137.640625 L 71.199219 124.449219 C 71.492188 124.558594 71.785156 124.660156 72.078125 124.765625 C 82.761719 128.546875 94.277344 130.613281 106.28125 130.613281 C 118.175781 130.613281 129.589844 128.582031 140.195312 124.863281 C 140.59375 124.722656 140.996094 124.582031 141.394531 124.4375 L 146.488281 137.585938 L 147.75 140.714844 L 159.632812 170.175781 L 137.488281 170.175781 L 127.769531 146.136719 L 127.507812 145.488281 C 123.722656 146.480469 119.652344 147.175781 115.46875 147.589844 L 114.527344 150.042969 L 106.292969 170.175781 L 98.070312 150.074219 L 97.121094 147.601562 C 92.941406 147.191406 88.871094 146.5 85.082031 145.515625 L 75.113281 170.175781 L 52.96875 170.175781 Z M 79.917969 177.164062 L 90.652344 150.621094 L 101.507812 177.164062 L 111.078125 177.164062 L 121.941406 150.601562 L 132.683594 177.164062 L 170.078125 177.164062 L 153.085938 135.023438 L 145.511719 115.480469 L 138.9375 117.878906 C 138.625 117.992188 137.820312 118.273438 137.820312 118.273438 C 127.703125 121.820312 117.09375 123.621094 106.28125 123.621094 C 95.363281 123.621094 84.660156 121.789062 74.457031 118.175781 L 73.65625 117.890625 L 67.082031 115.496094 L 59.476562 135.113281 L 42.519531 177.164062 Z M 79.917969 177.164062 "/>
</svg>
